<svg width="524" height="495" viewBox="0 0 524 495" fill="none" xmlns="http://www.w3.org/2000/svg">
<g clip-path="url(#clip0_33_459)">
<path d="M424 67.9509H319.205L277.5 27.5L263.5 14L248.5 29L207.902 67.9509H100H84.9509V86V180.548L28.9989 236.5L14.6271 250L25.5 260.873L84.9509 320.324V409V424.508H99.5H207.902L252.5 469.107L263.213 480.5L274.606 469.107L319.205 424.508H425H439.567V405.5V320.324L497.391 262.5L509.5 250.481L497.391 238.372L439.567 180.548V83.5V67.9509H424Z" stroke="#009746" stroke-width="20"/>
<path d="M327 424.5H433.5" stroke="white" stroke-width="3"/>
<path d="M439.5 417.5V329" stroke="white" stroke-width="3"/>
<path d="M443 317.5L503 257.5" stroke="white" stroke-width="3"/>
<path d="M504 246L444 186" stroke="white" stroke-width="3"/>
<path d="M440.5 174.5V75" stroke="white" stroke-width="3"/>
<path d="M433.5 69H325" stroke="white" stroke-width="3"/>
<path d="M269 19L314.5 64.5" stroke="white" stroke-width="3"/>
<path d="M268.5 474.5L315 428" stroke="white" stroke-width="3"/>
<path d="M111 174V93H192L111 174Z" fill="#EF7F1B"/>
<path d="M111 320V401H192L111 320Z" fill="#EF7F1B"/>
<path d="M415 174V93H334L415 174Z" fill="#EF7F1B"/>
<path d="M415 320V401H334L415 320Z" fill="#EF7F1B"/>
<path d="M265.5 440.5L69 244L113.5 199.5L303.5 389.5L351 342L163.5 154.5L269.5 48.5" stroke="#009746" stroke-width="20"/>
<path d="M292.5 73L208.5 154L287.5 233L362.5 161L447 245.5L366 326.5" stroke="#009746" stroke-width="20"/>
<path d="M359 305L308 254L332.5 229.5L362.5 199.5L408 245L370.5 282.5L347.5 259.5L368 239" stroke="#EF7F1B" stroke-width="15"/>
<path d="M309 91.5L246 154.5L287.5 196L349 134.5" stroke="#EF7F1B" stroke-width="15"/>
<path d="M328.5 112L285 155.5" stroke="#EF7F1B" stroke-width="15"/>
<path d="M134 171L272.5 309.5" stroke="#EF7F1B" stroke-width="15"/>
<path d="M276.5 314L313 350.5" stroke="#EF7F1B" stroke-width="15"/>
<path d="M107 237L128 258" stroke="#EF7F1B" stroke-width="15"/>
<path d="M133 263L154 284" stroke="#EF7F1B" stroke-width="15"/>
<path d="M158.5 289L288.5 419" stroke="#EF7F1B" stroke-width="15"/>
<circle cx="258.5" cy="433.5" r="6.5" stroke="white" stroke-width="2"/>
<circle cx="262.5" cy="55.5" r="6.5" stroke="white" stroke-width="2"/>
<circle cx="263.5" cy="15.5" r="6" stroke="white" stroke-width="3"/>
<circle cx="206.5" cy="67.5" r="6" stroke="white" stroke-width="3"/>
<circle cx="85.5" cy="68.5" r="6" stroke="white" stroke-width="3"/>
<circle cx="84.5" cy="179.5" r="6" stroke="white" stroke-width="3"/>
<circle cx="16.5" cy="250.5" r="6" stroke="white" stroke-width="3"/>
<circle cx="84.5" cy="324.5" r="6" stroke="white" stroke-width="3"/>
<circle cx="86.5" cy="423.5" r="6" stroke="white" stroke-width="3"/>
<circle cx="208.5" cy="424.5" r="6" stroke="white" stroke-width="3"/>
<circle cx="262.5" cy="477.5" r="6" stroke="white" stroke-width="3"/>
<circle cx="320.5" cy="424.5" r="6" stroke="white" stroke-width="3"/>
<circle cx="439.5" cy="423.5" r="6" stroke="white" stroke-width="3"/>
<circle cx="439.5" cy="322.5" r="6" stroke="white" stroke-width="3"/>
<circle cx="506.5" cy="251.5" r="6" stroke="white" stroke-width="3"/>
<circle cx="440.5" cy="180.5" r="6" stroke="white" stroke-width="3"/>
<circle cx="439.5" cy="69.5" r="6" stroke="white" stroke-width="3"/>
<circle cx="319.5" cy="67.5" r="6" stroke="white" stroke-width="3"/>
<circle cx="284.5" cy="80.5" r="6.5" stroke="white" stroke-width="2"/>
<circle cx="373.5" cy="319.5" r="6.5" stroke="white" stroke-width="2"/>
<path d="M254.5 429L70 244.5L114.5 200L303.5 389L350 342.5L162.5 155L258 59.5" stroke="white" stroke-width="2"/>
<path d="M280 84.5L209.5 155C235.5 181.167 287.5 233.4 287.5 233C287.5 232.6 337.667 185.667 362 161.5L447 246.5L378.5 315" stroke="white" stroke-width="2"/>
<path d="M258.5 19.5L212 63.5" stroke="white" stroke-width="3"/>
<path d="M200.5 68H92" stroke="white" stroke-width="3"/>
<path d="M85.5 74.5V173" stroke="white" stroke-width="3"/>
<path d="M81 185L20.5 245.5" stroke="white" stroke-width="3"/>
<path d="M20 255.5L83 318.5" stroke="white" stroke-width="3"/>
<path d="M85 330.5V417.5" stroke="white" stroke-width="3"/>
<path d="M93 424H202" stroke="white" stroke-width="3"/>
<path d="M213 429L257.5 473.5" stroke="white" stroke-width="3"/>
</g>
<defs>
<clipPath id="clip0_33_459">
<rect width="524" height="495" fill="white"/>
</clipPath>
</defs>
</svg>
